# xmcd
#
# Track frame offsets: 
#        180
#        13555
#        26187
#        39842
#        51457
#        64097
#        77750
#        98015
#        108984
#        121487
#        135702
#        149794
#        163100
#        175732
#        187580
#        199148
#        212623
#        226131
#        240375
#        253926
#        267005
#
# Disc length: 3725 seconds
#
# Revision: 0
# Processed by: cddbd v1.5.2PL0 Copyright (c) Steve Scherf et al.
# Submitted via: ExactAudioCopy v0.95b4
#
DISCID=210e8b15
DTITLE=Various Artist - 125 Blues Hits 4
DYEAR=2006
DGENRE=Blues
TTITLE0=Robert Johnson - I believe I'll dust my broom
TTITLE1=John Lee Williamson - Black gal blues
TTITLE2=Dr Clayton - Pearl harbour blues
TTITLE3=Bukka White - Aberdeen Mississippi blues
TTITLE4=Muddy Waters - Little Geneva
TTITLE5=Willie Newbern - Roll and humble blues hambone
TTITLE6=John Lee Hooker - Baby baby
TTITLE7=Jimmy Witherspoon - Geneva blues aka evil woman
TTITLE8=Mississippi John Hurt - Candy man blues
TTITLE9=Oak Cliff T-Bone - Trinity river blues
TTITLE10=Sleepy John Estes - Brownsville blues
TTITLE11=Sonny Boy Williamson - I'm tired trucking my blues away
TTITLE12=Champion Jack Dupree - Junker blues
TTITLE13=Joe Williams and Count Basie - Every day
TTITLE14=Lightnin Hopkins - Honey babe
TTITLE15=Leadbelly - Death letter blues
TTITLE16=Josh White - Silicosis is killin me
TTITLE17=Memphis Slim - Grinder man blues
TTITLE18=John Lee Williamson - Good morning little school girl
TTITLE19=Lonnie Johnson - Mean old bug blues
TTITLE20=Memphis Minnie - Moonshine
EXTD=
EXTT0=
EXTT1=
EXTT2=
EXTT3=
EXTT4=
EXTT5=
EXTT6=
EXTT7=
EXTT8=
EXTT9=
EXTT10=
EXTT11=
EXTT12=
EXTT13=
EXTT14=
EXTT15=
EXTT16=
EXTT17=
EXTT18=
EXTT19=
EXTT20=
PLAYORDER=
